<?xml version="1.0" standalone="no"?>
<!DOCTYPE svg PUBLIC "-//W3C//DTD SVG 20010904//EN"
 "http://www.w3.org/TR/2001/REC-SVG-20010904/DTD/svg10.dtd">
<svg version="1.0" xmlns="http://www.w3.org/2000/svg"
 width="924.000000pt" height="998.000000pt" viewBox="0 0 924.000000 998.000000"
 preserveAspectRatio="xMidYMid meet">

<g transform="translate(0.000000,998.000000) scale(0.100000,-0.100000)"
fill="#000000" stroke="none">
<path d="M0 4990 l0 -4990 4620 0 4620 0 0 4990 0 4990 -4620 0 -4620 0 0
-4990z m4985 3014 c999 -110 1881 -729 2339 -1642 222 -442 331 -980 306
-1509 -11 -226 -36 -422 -76 -600 -179 -804 -659 -1476 -1349 -1890 -494 -297
-1062 -438 -1690 -420 -572 17 -1032 143 -1450 396 -770 467 -1279 1219 -1429
2111 -188 1111 220 2236 1054 2907 619 499 1469 738 2295 647z"/>
<path d="M4390 7974 c-749 -69 -1432 -390 -1941 -911 -461 -472 -729 -1040
-810 -1718 -19 -157 -17 -546 4 -715 83 -663 339 -1234 764 -1703 395 -436
950 -758 1493 -866 93 -18 365 -61 391 -61 5 0 9 42 9 95 0 112 11 107 -147
71 -57 -13 -103 -19 -103 -15 0 4 25 17 55 28 91 34 151 68 179 101 21 26 26
42 26 87 0 40 -3 54 -12 50 -152 -64 -194 -76 -373 -102 -212 -32 -431 -18
-566 36 -110 43 -349 182 -336 196 3 2 46 -17 97 -42 233 -117 374 -158 540
-158 142 0 233 26 359 104 303 187 457 494 478 954 8 160 18 144 29 -45 20
-344 -98 -644 -341 -867 -43 -40 -82 -73 -87 -73 -4 0 -8 -4 -8 -9 0 -16 101
19 155 53 133 86 235 246 315 494 l36 113 23 -107 c44 -209 110 -350 219 -466
84 -89 149 -123 277 -143 52 -9 108 -20 123 -26 31 -12 95 -59 89 -65 -3 -3
-58 8 -123 25 -113 28 -264 54 -272 46 -11 -11 47 -92 108 -148 l72 -66 -47
15 c-85 29 -131 85 -337 408 -98 153 -108 166 -108 135 0 -55 20 -150 40 -189
10 -19 43 -66 74 -104 31 -38 54 -71 51 -75 -4 -3 -14 3 -23 15 -10 11 -34 40
-55 65 l-38 44 7 -45 c11 -73 53 -181 96 -243 l39 -58 -29 15 c-36 18 -85 73
-103 115 -8 17 -17 31 -20 31 -3 0 -9 -35 -13 -78 -4 -42 -10 -101 -13 -131
l-6 -54 144 6 c345 15 696 86 983 199 471 186 877 486 1201 888 177 219 371
569 470 845 419 1167 111 2459 -778 3267 -375 341 -840 590 -1319 707 -222 54
-377 72 -648 76 -135 1 -265 1 -290 -1z m300 -383 c-1 -3 -10 -17 -21 -30 -19
-23 -20 -23 -39 -6 -24 22 -25 29 -4 61 l17 25 23 -22 c13 -13 24 -25 24 -28z
m-312 -3 c18 -18 14 -42 -12 -67 l-23 -22 -17 25 c-9 14 -16 31 -16 39 0 18
21 37 40 37 9 0 21 -5 28 -12z m572 -68 c8 -14 8 -26 -1 -41 l-11 -21 -21 20
c-20 21 -20 22 -2 42 22 25 22 25 35 0z m-580 -175 c8 5 11 2 7 -11 -3 -11 -8
-41 -12 -69 -8 -63 -23 -86 -81 -126 -39 -26 -44 -28 -35 -10 7 11 15 21 19
21 5 0 23 15 41 32 32 31 33 35 27 90 -6 61 1 99 14 78 4 -7 13 -9 20 -5z
m1505 -29 c16 -12 17 -16 6 -30 -27 -33 -72 -10 -57 29 7 19 26 19 51 1z
m-1807 -120 c17 28 14 3 -7 -78 -20 -73 -24 -104 -22 -167 1 -30 3 -32 17 -20
9 7 45 51 81 96 58 75 83 97 83 75 0 -4 -24 -35 -53 -68 -54 -61 -94 -139
-104 -199 -8 -51 18 -92 133 -205 l106 -105 -4 60 c-2 33 -12 75 -21 94 -21
41 -21 47 -3 32 12 -10 15 -2 20 51 4 35 10 99 15 143 l8 80 2 -89 c1 -101 -3
-100 91 -36 65 44 84 39 23 -6 -110 -80 -137 -128 -113 -200 l12 -36 39 43
c21 24 59 84 86 132 40 75 49 85 51 63 l3 -26 30 21 c22 16 37 19 61 14 l32
-8 -52 -19 c-39 -14 -61 -31 -83 -60 -16 -23 -29 -47 -29 -54 0 -7 20 -15 50
-19 28 -4 50 -10 50 -14 0 -4 -26 -4 -57 0 -73 10 -106 -7 -141 -71 -35 -67
-28 -144 28 -285 l44 -110 14 80 c20 120 21 125 37 125 8 0 16 6 16 13 3 28 4
32 14 34 15 3 8 -34 -19 -102 -33 -82 -50 -176 -41 -222 7 -36 8 -37 18 -15
12 27 27 29 27 3 0 -12 8 -21 21 -23 19 -3 17 -6 -17 -28 -28 -18 -51 -47 -82
-105 -23 -43 -64 -113 -91 -155 -55 -84 -70 -127 -63 -182 5 -46 17 -49 25 -8
9 43 75 109 177 179 107 74 191 155 248 240 56 84 60 103 33 158 -24 49 -25
57 -11 48 11 -7 48 31 81 82 l20 33 -24 62 c-25 65 -40 118 -34 118 3 0 17
-34 33 -75 16 -41 33 -74 38 -72 5 2 16 23 24 48 18 53 19 56 33 42 8 -8 3
-28 -16 -72 -30 -65 -28 -86 5 -56 20 18 20 17 20 -8 0 -23 -4 -27 -28 -27
-30 0 -101 -43 -104 -63 -1 -7 -2 -47 -2 -90 l-1 -78 35 6 c19 3 59 18 88 32
64 30 105 88 122 170 22 102 -15 266 -73 333 -12 14 -15 19 -7 13 17 -16 34
-17 25 -3 -15 24 -5 141 14 185 11 25 21 45 23 45 2 0 -3 -37 -12 -82 -9 -46
-15 -85 -13 -88 2 -2 14 7 26 22 20 24 57 44 57 32 0 -3 -11 -20 -24 -37 -13
-18 -27 -46 -30 -62 -7 -33 22 -146 39 -151 11 -4 141 179 174 243 11 23 21
62 21 85 1 42 1 42 15 18 13 -24 14 -24 21 -5 4 11 20 53 36 92 27 66 29 80
24 150 -5 70 -4 73 5 33 l11 -45 20 39 c11 21 21 36 23 34 2 -2 -7 -54 -21
-117 -14 -62 -23 -115 -20 -118 3 -3 29 15 58 41 29 25 56 46 61 46 15 0 -12
-37 -48 -66 -19 -16 -53 -44 -75 -63 -46 -39 -268 -359 -283 -408 -6 -20 -7
-44 -1 -64 l9 -31 62 46 c70 51 86 72 113 145 24 66 103 191 162 256 79 87
145 131 211 142 31 6 57 9 57 7 0 -1 -35 -21 -77 -45 -77 -42 -206 -154 -200
-172 1 -5 50 -9 107 -9 69 0 96 -2 80 -8 -14 -4 -60 -8 -102 -9 -42 -1 -88 -5
-101 -10 -32 -12 -75 -69 -83 -108 l-6 -30 129 37 c156 45 191 60 254 106 54
40 150 69 168 51 18 -18 12 -23 -26 -19 -31 3 -53 -6 -122 -48 -104 -63 -174
-93 -284 -121 -105 -26 -143 -48 -152 -87 -7 -32 -30 -57 -87 -91 -54 -32
-134 -124 -154 -176 -9 -25 -14 -48 -11 -51 8 -8 141 61 234 122 123 80 174
104 140 66 -10 -10 -39 -29 -67 -42 -56 -26 -56 -40 -1 -40 21 0 67 -3 102 -7
54 -6 59 -8 34 -14 -16 -4 -60 -7 -96 -8 -75 -1 -140 -21 -254 -78 -44 -22
-131 -62 -193 -88 -123 -52 -151 -74 -231 -185 -33 -46 -69 -80 -126 -119 -44
-29 -73 -51 -64 -48 9 3 49 15 89 27 97 29 169 64 218 106 22 19 43 34 46 34
4 0 5 -12 4 -27 -4 -39 22 -40 107 -5 39 16 85 32 104 36 30 5 32 4 20 -10
-10 -13 -10 -17 2 -25 10 -6 1 -9 -29 -9 -23 0 -60 -9 -81 -19 -21 -11 -78
-27 -127 -36 -53 -10 -115 -30 -154 -50 -37 -18 -93 -41 -126 -51 -209 -60
-244 -109 -252 -350 -8 -248 -1 -264 144 -360 46 -30 91 -68 101 -84 l17 -30
33 72 c18 39 48 90 67 112 53 66 56 77 56 203 0 78 4 113 10 103 12 -19 21
-10 54 54 18 33 26 65 27 100 0 44 2 48 10 26 6 -13 17 -32 26 -42 15 -16 12
-24 -35 -95 -76 -117 -77 -121 -63 -203 8 -42 18 -70 25 -70 7 0 53 18 103 39
49 22 121 49 159 60 112 33 195 97 230 176 75 170 77 176 71 250 -10 108 -37
226 -63 271 -24 41 -30 99 -15 139 6 14 10 -3 12 -53 4 -58 9 -77 27 -94 24
-25 26 -19 13 32 -10 34 -10 35 6 12 l17 -24 24 39 c25 41 25 37 -9 -75 -15
-53 -20 -87 -15 -120 9 -64 20 -72 56 -37 35 34 38 25 9 -40 -11 -25 -18 -49
-15 -53 12 -11 181 115 179 134 -1 9 5 23 12 30 7 8 16 33 20 56 7 39 8 41 22
22 16 -22 10 -81 -14 -127 -7 -15 -44 -47 -81 -71 -91 -58 -175 -157 -157
-186 3 -5 35 7 71 27 64 35 91 39 61 8 -9 -8 -14 -22 -11 -29 4 -9 -9 -15 -43
-20 -70 -9 -105 -35 -136 -100 -15 -30 -29 -66 -32 -79 l-6 -24 58 14 c32 8
63 19 69 24 5 4 19 6 31 3 29 -8 75 18 117 68 38 44 42 45 26 3 -9 -24 -8 -26
12 -19 13 3 35 13 51 21 35 18 35 3 -1 -24 -49 -36 -132 -74 -281 -128 -157
-56 -482 -190 -559 -229 -132 -68 -175 -130 -176 -256 -1 -95 12 -119 119
-230 87 -90 108 -121 136 -210 12 -38 18 -47 18 -30 3 52 51 163 136 311 137
239 205 383 206 438 l1 46 15 -35 c8 -19 16 -37 18 -39 2 -1 50 16 107 39 289
118 386 201 439 371 36 116 26 173 -61 360 -33 69 -67 154 -77 190 -17 65 -23
207 -13 324 5 55 3 60 -14 57 -17 -3 -18 -2 -7 12 13 15 12 22 -15 91 l-7 20
23 -20 22 -20 -6 35 c-5 25 -4 31 3 20 5 -8 13 -32 16 -52 4 -21 9 -38 12 -38
3 0 26 16 49 36 24 19 44 33 44 30 0 -3 -16 -28 -36 -56 -38 -54 -69 -146 -52
-156 5 -4 26 9 46 28 69 64 80 70 96 61 13 -7 3 -19 -53 -62 -85 -64 -101 -88
-100 -143 2 -76 12 -103 37 -102 20 1 21 -1 7 -16 -8 -9 -15 -27 -15 -41 0
-26 129 -299 141 -299 19 0 30 70 20 126 -14 74 -14 79 3 65 8 -7 19 -39 25
-72 9 -52 8 -67 -9 -110 -16 -41 -19 -72 -19 -189 1 -77 4 -140 6 -140 2 0 29
16 60 36 109 69 77 21 -122 -185 -160 -164 -206 -197 -318 -223 -168 -39 -228
-100 -302 -311 -15 -42 -54 -120 -87 -173 -33 -52 -58 -97 -56 -100 2 -2 44 7
93 21 49 13 91 22 94 20 2 -3 -18 -14 -45 -26 -156 -68 -194 -89 -203 -111 -6
-13 -15 -73 -21 -135 -19 -202 -60 -314 -174 -482 -79 -116 -90 -160 -89 -366
1 -189 18 -315 59 -447 32 -101 60 -159 129 -263 65 -98 93 -115 253 -155 66
-16 156 -45 200 -65 115 -50 184 -66 292 -66 118 0 201 21 385 96 76 30 140
54 142 51 3 -2 -33 -25 -79 -49 -224 -123 -324 -152 -497 -145 -103 4 -129 9
-236 45 -66 23 -164 53 -219 67 -191 50 -293 131 -378 301 -35 69 -83 222
-107 341 -18 90 -28 161 -61 440 -20 175 -56 246 -210 409 -120 128 -144 167
-165 279 -18 94 -32 121 -97 193 -50 56 -121 187 -132 248 -4 17 -3 24 0 18
14 -31 24 -7 25 60 1 39 4 99 8 132 l6 60 8 -93 c4 -52 4 -111 1 -131 -9 -58
32 -141 49 -98 3 6 6 -10 6 -37 1 -61 24 -99 91 -150 86 -65 173 -185 216
-296 25 -66 55 -101 131 -158 41 -30 78 -67 92 -92 l23 -42 45 44 c90 88 135
231 114 360 -18 109 -51 168 -138 245 -105 94 -136 145 -184 296 -42 135 -45
139 -160 242 -67 61 -81 98 -90 255 -11 165 -22 237 -56 343 -54 173 -107 262
-233 387 -92 93 -252 211 -267 197 -6 -7 35 -102 69 -158 15 -25 32 -69 37
-96 14 -71 30 -101 66 -123 34 -21 71 -27 60 -10 -3 6 -2 10 4 10 5 0 12 -13
16 -30 7 -30 24 -41 26 -17 1 6 5 -19 9 -57 5 -46 12 -73 23 -81 19 -14 22
-31 7 -40 -20 -12 -40 17 -40 57 0 77 -35 113 -141 144 -107 32 -426 201 -421
224 7 33 -114 190 -147 190 -6 0 -30 18 -55 40 -52 44 -92 55 -174 47 -75 -8
-147 16 -112 38 5 3 20 0 32 -7 13 -6 58 -13 100 -13 l77 -1 -18 35 c-10 20
-22 47 -25 61 l-7 25 19 -24 c19 -23 20 -23 30 -5 10 17 11 15 12 -13 0 -46
17 -77 53 -98 17 -10 47 -33 66 -50 20 -18 49 -38 65 -46 20 -9 42 -37 67 -84
37 -67 97 -135 120 -135 6 0 8 7 5 15 -3 8 -9 23 -13 32 -5 12 -2 15 10 10 12
-4 17 -1 18 11 0 9 9 -6 20 -35 21 -56 68 -103 101 -103 16 0 19 5 15 23 -5
21 -5 21 6 2 29 -47 106 -99 123 -82 9 8 -29 127 -61 192 -19 39 -61 106 -94
150 -73 97 -171 300 -141 290 21 -7 21 -16 1 118 -12 85 7 56 29 -45 11 -46
23 -95 28 -108 9 -23 9 -23 20 10 17 46 23 34 11 -20 -6 -24 -7 -61 -4 -82 9
-50 64 -130 93 -135 13 -1 36 -10 53 -18 34 -18 36 -12 11 30 -46 77 -73 125
-69 125 4 0 171 -190 194 -219 8 -11 15 -13 22 -6 7 7 -3 60 -29 165 -43 169
-48 207 -20 145 l18 -40 12 30 c8 20 10 62 7 125 -3 52 -1 104 3 115 9 22 12
-31 15 -300 1 -187 13 -247 58 -292 17 -18 33 -33 36 -33 4 0 4 24 3 54 -3 35
2 64 12 84 9 17 16 43 16 58 0 26 1 26 19 10 19 -17 19 -18 -5 -69 -13 -29
-24 -61 -24 -72 0 -42 52 -131 137 -234 1 -2 6 -2 9 1 3 4 -4 40 -15 80 -28
99 -26 117 4 43 14 -33 25 -62 25 -65 0 -11 63 90 96 153 19 37 39 65 44 62
23 -15 8 -79 -40 -173 -47 -90 -76 -192 -54 -192 15 1 113 136 147 202 48 92
44 156 -17 318 -86 229 -79 220 -193 261 -78 28 -82 36 -10 20 20 -5 37 -6 37
-3 0 3 -21 30 -46 61 -108 131 -124 188 -121 428 2 165 3 171 18 141 15 -29
17 -30 27 -12z m2051 -9 c8 -10 7 -19 -4 -33 -15 -19 -15 -19 -30 0 -11 14
-12 23 -4 33 6 7 15 13 19 13 4 0 13 -6 19 -13z m-1419 -137 c-30 -60 -65
-120 -78 -132 -16 -15 -23 -17 -20 -8 43 131 53 151 64 136 9 -13 16 -4 43 56
17 39 34 68 38 65 3 -4 -18 -56 -47 -117z m-1600 30 c-5 -9 -16 -22 -24 -29
-13 -11 -18 -7 -33 23 -16 35 -16 37 3 50 17 13 21 12 41 -6 16 -15 20 -25 13
-38z m2105 -3 c16 -48 16 -56 3 -78 -9 -13 -19 -42 -23 -64 -8 -44 -24 -80
-32 -71 -3 3 5 46 18 95 20 75 22 97 13 131 -16 59 0 49 21 -13z m-708 -28
c-7 -37 -7 -60 3 -88 17 -53 6 -76 -14 -29 -18 41 -22 133 -6 123 6 -3 10 2
10 13 0 16 8 32 15 32 1 0 -2 -23 -8 -51z m1843 -44 c0 -7 -9 -20 -20 -30 -20
-18 -21 -18 -35 1 -20 26 -19 51 2 63 19 10 53 -11 53 -34z m-2618 -95 c2 -19
8 -34 14 -33 11 2 41 -243 31 -253 -2 -2 -7 26 -11 63 -5 45 -13 75 -26 88
-14 15 -19 39 -22 102 -3 79 7 104 14 33z m2258 -269 c0 -4 -28 -28 -62 -52
-62 -43 -62 -43 -35 -10 15 18 27 39 27 47 0 10 6 13 18 10 9 -3 24 -1 32 4
19 12 20 12 20 1z m-2665 -22 c4 -13 31 -31 72 -50 73 -32 81 -50 12 -23 -48
19 -129 73 -129 86 0 18 39 7 45 -13z m-816 -118 c16 -28 -14 -51 -36 -28 -13
13 -14 19 -3 31 17 21 27 20 39 -3z m3562 -74 c-18 -47 -117 -88 -136 -57 -3
6 4 10 18 10 27 0 105 52 114 77 4 10 8 12 10 7 2 -6 -1 -23 -6 -37z m431
-121 c-22 -69 -36 -126 -31 -126 4 0 31 9 59 20 53 21 80 25 80 12 0 -4 -34
-20 -76 -36 -43 -16 -93 -43 -113 -61 -35 -33 -36 -35 -37 -113 -2 -75 -4 -84
-39 -137 -30 -44 -50 -62 -97 -86 -83 -42 -108 -71 -108 -125 0 -50 19 -144
28 -144 4 0 25 12 47 25 23 14 55 25 75 25 33 -1 31 -3 -37 -34 -79 -38 -89
-50 -99 -124 l-7 -52 29 0 c73 1 169 79 192 159 18 58 16 64 -15 57 -23 -6
-20 -2 17 24 55 36 59 37 52 5 -6 -32 0 -32 55 7 26 17 53 31 62 31 8 0 48 20
88 44 66 38 134 57 133 36 -1 -5 -65 -37 -143 -72 -213 -97 -233 -113 -251
-197 l-7 -32 43 4 c24 2 72 5 107 8 l65 4 -32 -20 c-19 -12 -61 -23 -100 -28
-43 -4 -89 -18 -127 -37 -79 -40 -114 -51 -219 -68 -153 -24 -200 -65 -301
-265 -71 -139 -92 -162 -180 -201 -52 -23 -328 -110 -333 -105 -1 2 10 18 25
36 32 38 110 76 233 113 114 35 151 68 242 218 101 167 114 181 221 234 50 25
100 55 110 67 22 26 22 65 -2 227 -29 190 -36 331 -22 436 17 121 30 141 31
43 0 -43 3 -78 8 -78 19 1 148 88 166 113 l21 28 -27 50 c-33 57 -36 74 -8 40
23 -27 20 -31 49 89 l20 85 -5 -65 c-5 -70 -8 -70 44 -5 12 15 24 26 27 24 11
-12 -13 -61 -35 -72 -35 -17 -50 -53 -50 -119 0 -49 3 -58 18 -58 50 0 77 42
143 224 23 66 45 114 47 108 2 -6 -15 -67 -36 -136z m-2317 37 c-7 -28 -42
-73 -57 -73 -8 0 53 99 61 100 2 0 0 -12 -4 -27z m-1846 -127 c9 -10 9 -20 0
-40 -12 -25 -13 -25 -31 -10 -21 20 -23 35 -6 52 16 16 23 15 37 -2z m3582
-38 c-12 -32 -112 -93 -123 -75 -14 22 -9 39 10 33 24 -8 76 26 98 64 21 35
31 20 15 -22z m-354 -55 c4 2 18 -11 30 -29 21 -32 21 -34 4 -34 -17 0 -18 -7
-14 -83 4 -63 2 -90 -10 -113 -17 -33 -57 -73 -57 -57 0 6 7 16 16 24 49 41
55 104 19 216 -29 91 -30 100 -10 83 8 -6 18 -10 22 -7z m1097 -77 c-17 -8
-52 -30 -78 -50 -42 -31 -55 -36 -103 -36 -69 0 -62 13 8 16 41 2 57 8 83 32
40 38 65 51 96 51 24 0 23 0 -6 -13z m-1016 -8 c14 -14 16 -57 2 -78 -11 -17
-14 -9 -25 53 -6 38 2 46 23 25z m-2800 -210 c31 -40 32 -41 32 -15 0 15 4 27
9 27 5 0 12 -44 15 -97 7 -96 7 -122 3 -213 -1 -30 5 -54 18 -74 l19 -29 17
49 16 49 4 -80 c4 -79 5 -81 60 -157 31 -43 60 -93 63 -111 4 -21 21 -48 42
-68 54 -53 58 -64 38 -119 -21 -59 -10 -96 43 -136 34 -26 63 -76 63 -109 0
-14 -4 -14 -31 2 -50 29 -107 98 -119 143 -6 24 -9 64 -5 90 6 41 2 56 -28
117 -35 68 -151 264 -256 431 -53 85 -68 142 -16 64 15 -24 32 -39 37 -34 14
14 21 125 9 169 -6 22 -27 64 -46 92 -42 61 -32 68 13 9z m3762 -65 c-5 -10
-21 -31 -36 -48 -25 -29 -25 -29 -18 -5 16 57 24 70 44 70 17 0 19 -3 10 -17z
m-3636 -19 c3 -9 11 -12 18 -8 8 5 9 2 5 -10 -4 -10 -7 -59 -7 -109 -1 -120
-17 -96 -28 42 -7 93 -3 124 12 85z m-343 -81 c3 -82 12 -116 54 -203 34 -73
49 -117 59 -186 7 -50 20 -101 27 -115 13 -23 14 -20 17 39 5 97 22 73 22 -30
0 -99 17 -155 57 -190 10 -10 55 -35 100 -57 83 -41 112 -67 132 -123 43 -118
65 -140 216 -216 118 -59 145 -84 152 -144 l6 -43 -49 51 c-28 29 -92 76 -148
109 -125 73 -170 114 -206 185 -44 87 -72 114 -142 140 -79 29 -130 79 -147
146 -7 27 -21 70 -32 95 -10 26 -25 91 -33 144 -16 106 -32 139 -79 163 -38
21 -112 90 -104 98 3 4 31 -15 62 -41 30 -26 58 -45 61 -42 3 3 -4 27 -16 54
-25 55 -40 193 -21 193 6 0 11 -12 12 -27z m-279 -138 c5 -49 5 -106 2 -125
l-7 -35 -14 55 c-7 30 -15 102 -18 160 -5 103 -5 104 11 70 9 -19 21 -75 26
-125z m2724 100 c7 -51 18 -64 33 -38 5 10 12 15 15 12 4 -3 -4 -25 -17 -47
l-23 -41 -15 79 c-9 44 -12 80 -8 80 4 0 11 -20 15 -45z m-1395 10 c49 -17 85
-47 92 -76 7 -28 -1 -24 -67 27 l-58 46 -64 -7 c-35 -3 -74 -3 -86 2 -22 8 4
12 118 21 12 1 41 -5 65 -13z m1166 -22 c-3 -10 -5 -4 -5 12 0 17 2 24 5 18 2
-7 2 -21 0 -30z m-984 -87 c-8 -75 2 -115 41 -170 l33 -47 21 33 c33 51 26 18
-13 -63 -19 -40 -33 -74 -31 -76 2 -2 21 3 42 12 39 16 70 13 59 -5 -3 -5 -17
-10 -30 -10 -13 0 -27 -4 -30 -10 -3 -5 -1 -10 4 -10 6 0 11 -4 11 -8 0 -8
-81 -45 -86 -39 -1 1 5 33 13 72 13 62 12 74 -2 111 -21 55 -85 128 -127 144
-35 14 -68 38 -68 50 0 18 86 -10 107 -34 12 -14 24 -26 26 -26 3 0 8 29 12
65 3 36 10 65 15 65 5 0 6 -24 3 -54z m2988 -46 c4 0 21 11 37 25 17 14 33 21
36 16 3 -5 -28 -32 -68 -60 -108 -74 -120 -92 -141 -205 -9 -53 -15 -100 -13
-106 1 -5 63 17 136 50 73 32 128 52 121 44 -17 -21 -6 -26 35 -18 47 8 141
70 155 101 6 13 16 21 21 18 13 -8 30 37 30 78 0 24 3 28 10 17 17 -27 11 -65
-20 -113 -34 -54 -98 -99 -167 -117 -281 -72 -320 -90 -362 -165 -34 -61 -67
-88 -166 -139 -66 -34 -155 -106 -155 -125 0 -10 22 -15 160 -35 52 -7 109
-12 127 -9 34 5 78 45 86 78 5 19 5 19 12 -3 8 -23 9 -23 51 19 24 24 44 37
44 30 0 -10 9 -12 30 -7 17 3 30 4 30 1 0 -10 -126 -89 -187 -117 l-65 -31
-100 18 c-162 28 -283 10 -548 -84 -136 -49 -168 -67 -206 -116 -25 -34 -29
-47 -34 -145 -6 -92 -11 -114 -34 -154 -34 -58 -187 -189 -202 -173 -10 9 53
119 101 177 64 78 78 113 85 210 3 48 12 95 20 108 20 30 83 70 201 126 90 42
98 48 114 88 12 31 17 72 16 156 0 94 3 111 14 102 10 -8 19 -2 42 29 15 22
33 39 38 37 18 -6 4 -40 -31 -76 -33 -35 -40 -61 -28 -107 5 -19 10 -20 31
-12 47 18 83 50 140 127 60 81 86 84 34 4 -39 -62 -90 -110 -148 -141 -44 -24
-50 -31 -71 -95 -13 -38 -21 -70 -19 -72 7 -7 176 45 218 67 61 31 116 94 155
178 47 101 49 104 62 109 6 2 -3 -31 -20 -73 -17 -41 -28 -78 -25 -81 8 -9
102 45 129 73 17 18 23 40 29 101 3 42 7 61 8 42 5 -78 15 -77 59 10 38 73 42
89 42 152 0 65 3 75 33 114 17 24 37 44 44 44 20 0 43 30 44 58 l1 27 11 -27
c6 -16 14 -28 18 -28z m-2268 -109 c-29 -56 -29 -59 8 -142 41 -95 33 -149
-14 -87 -27 37 -43 225 -21 249 10 11 13 26 9 38 -4 13 1 33 12 52 l18 31 5
-49 c4 -37 0 -58 -17 -92z m486 80 c-6 -18 -9 -34 -7 -37 3 -2 26 4 52 15 35
16 46 17 46 7 0 -17 -90 -56 -130 -56 -58 0 -129 -50 -175 -122 -20 -33 -35
-28 -35 11 0 33 22 54 115 108 39 23 85 57 104 77 19 20 36 34 38 32 2 -1 -2
-17 -8 -35z m-895 -49 c-15 -52 -29 -69 -21 -27 3 17 9 48 13 70 5 32 8 36 14
20 4 -11 1 -40 -6 -63z m-830 -2 c17 -41 34 -70 43 -70 11 0 12 -6 6 -22 -16
-46 -8 -141 17 -196 23 -50 24 -55 11 -125 -32 -171 -26 -218 34 -305 46 -67
88 -152 74 -152 -6 0 -43 27 -83 59 l-73 59 -16 77 c-24 107 -22 178 8 250 28
67 30 90 14 132 -6 15 -17 64 -24 108 -8 44 -23 119 -34 168 -10 48 -16 87
-13 87 4 0 20 -32 36 -70z m-444 -37 c0 -24 -7 -57 -15 -73 -19 -37 -28 -39
-15 -4 14 36 12 64 -5 98 -12 23 -13 32 -3 43 18 22 38 -11 38 -64z m858 -158
c28 -35 28 -69 1 -131 -24 -54 -28 -116 -15 -264 10 -111 -1 -164 -57 -270
-19 -36 -38 -84 -42 -107 -15 -93 35 -213 113 -266 20 -15 88 -40 152 -57 139
-38 245 -79 324 -127 68 -41 182 -146 208 -191 17 -28 13 -27 -61 23 -95 64
-193 103 -393 156 -187 50 -263 84 -323 144 -65 64 -96 136 -96 222 -1 83 16
132 75 219 67 97 70 114 58 309 -9 157 -9 168 8 185 31 31 45 92 29 126 -13
27 -27 36 -119 78 -19 9 -26 14 -15 12 11 -3 33 -8 49 -12 25 -6 28 -5 21 15
-3 11 -3 42 1 68 l7 47 26 -75 c15 -42 37 -88 49 -104z m-1312 -59 c13 -33 32
-68 41 -79 15 -16 123 -77 136 -77 3 0 8 24 12 53 l8 52 7 -45 c9 -70 25 -88
107 -126 69 -31 91 -49 232 -193 86 -87 229 -217 318 -290 164 -133 178 -150
171 -206 -3 -27 -14 -18 -203 155 -258 236 -292 261 -353 267 -26 2 -78 14
-115 25 -57 18 -75 19 -110 10 -84 -22 -217 -75 -217 -87 0 -7 -49 13 -115 46
-96 49 -124 59 -167 59 -79 0 -180 21 -168 35 7 8 -3 31 -31 75 -22 34 -38 64
-36 66 2 2 22 -19 43 -48 52 -70 96 -98 150 -98 24 0 44 3 44 8 -1 4 -9 46
-19 95 -10 48 -15 87 -11 87 4 0 13 -29 20 -64 6 -35 20 -77 30 -94 20 -33
161 -122 193 -122 11 0 32 14 48 31 l29 31 -7 -32 c-7 -36 -10 -36 82 -1 27
10 51 23 53 29 4 13 -60 26 -89 19 -13 -3 -19 -1 -16 6 2 7 -9 28 -25 49 -37
47 -58 109 -58 167 0 85 16 74 28 -21 8 -57 20 -103 31 -118 22 -31 101 -59
201 -71 41 -5 100 -17 130 -25 68 -20 90 -23 114 -14 16 5 8 17 -55 81 -62 62
-98 86 -214 148 -77 41 -170 94 -207 117 -91 59 -156 90 -272 134 -82 31 -105
36 -135 29 -49 -12 -77 -11 -66 0 6 5 26 11 45 13 27 2 34 7 32 21 -3 15 5 14
56 -12 65 -33 84 -31 50 6 -34 36 -15 27 69 -32 82 -58 100 -57 69 4 -9 16
-16 33 -16 36 0 5 92 -101 117 -134 2 -2 6 -1 10 3 4 3 -6 46 -21 94 -16 48
-31 94 -33 102 -8 29 60 -106 83 -164z m125 -51 c6 -25 10 -48 7 -50 -6 -7
-108 192 -108 211 0 28 89 -115 101 -161z m4622 -112 c-41 -139 -53 -260 -26
-265 12 -2 5 -11 -25 -32 -23 -16 -42 -32 -42 -35 0 -4 23 -13 50 -20 53 -14
58 -31 9 -31 -18 0 -28 4 -24 10 11 18 -81 11 -126 -10 -54 -24 -91 -25 -152
-4 -65 22 -69 35 -5 17 62 -19 126 -8 195 33 60 35 78 73 76 162 -1 65 2 78
31 126 18 30 38 79 45 110 7 31 16 56 21 56 4 0 -8 -53 -27 -117z m-4103 48
c0 -18 -3 -18 -47 -5 -72 21 -72 22 -10 23 50 1 57 -1 57 -18z m473 -348 c-8
-37 -16 -69 -18 -71 -2 -2 -7 17 -10 43 -6 40 -4 49 16 71 12 13 23 24 24 24
1 0 -5 -30 -12 -67z m3387 2 c-13 -16 -47 -19 -76 -8 -16 6 -16 7 2 14 10 4
34 8 53 8 29 1 32 -1 21 -14z m-475 -115 c-3 -6 4 -14 17 -19 18 -8 12 -10
-33 -10 -31 -1 -77 -7 -102 -15 -26 -8 -44 -10 -41 -4 9 15 73 40 84 33 5 -3
22 1 37 9 33 18 47 20 38 6z m-4183 -30 c-62 -29 -135 -40 -146 -21 -4 5 2 7
12 4 11 -2 46 7 78 21 32 14 73 25 89 26 26 0 21 -4 -33 -30z m198 9 c0 -42
34 -81 95 -111 33 -16 53 -27 43 -24 -46 14 -185 28 -230 24 -43 -5 -48 -4
-29 6 12 7 18 16 14 20 -4 5 18 6 51 3 56 -6 58 -5 51 16 -14 44 -17 87 -6 87
6 0 11 -9 11 -21z m4214 -124 c-26 -23 -49 -34 -70 -35 -17 0 -52 -11 -78 -25
-28 -15 -46 -20 -44 -13 3 7 40 28 84 46 43 18 86 40 94 48 8 7 23 14 34 14
15 0 11 -7 -20 -35z m-3840 -52 l101 -48 128 -1 c125 -1 130 -2 155 -28 l27
-26 -50 -1 c-79 -3 -118 2 -147 17 -15 8 -65 21 -110 30 -45 8 -111 29 -146
45 -79 35 -92 36 -162 3 -117 -56 -158 -65 -275 -63 -107 1 -112 0 -187 -35
-43 -19 -78 -32 -78 -28 0 5 37 26 82 48 45 21 84 45 86 52 3 11 -19 24 -82
46 -26 9 -19 12 44 20 54 7 54 7 36 -13 -17 -19 -17 -20 6 -35 38 -24 113 -39
182 -34 52 3 82 13 157 51 51 26 102 47 113 47 11 0 65 -21 120 -47z m1000 -9
c67 -26 143 -52 169 -60 27 -7 60 -20 73 -29 24 -16 60 -82 51 -92 -3 -2 -27
11 -54 30 -57 41 -199 113 -300 152 -40 16 -73 32 -73 37 0 12 4 11 134 -38z
m-890 -117 c48 4 76 2 76 -4 0 -11 -95 -33 -140 -33 -28 0 -92 38 -150 88 -33
29 -30 28 52 -13 85 -43 88 -43 162 -38z m3473 39 c-52 -40 -55 -44 -39 -60
16 -16 15 -17 -13 -9 -50 13 -108 7 -155 -17 -54 -27 -122 -72 -117 -76 2 -2
79 -15 172 -29 93 -14 171 -27 173 -29 2 -2 -10 -7 -26 -11 -16 -3 -73 3 -128
14 -207 41 -333 37 -443 -16 l-54 -26 38 -20 c103 -52 143 -61 300 -61 l150
-1 79 -40 c72 -36 86 -40 155 -40 70 0 238 17 304 31 22 5 26 3 21 -9 -7 -20
33 -32 79 -23 85 17 122 17 142 3 18 -14 16 -14 -27 -5 -52 12 -108 -3 -108
-28 0 -20 -14 -18 -72 12 -39 20 -59 24 -87 19 -20 -3 -70 -10 -111 -14 -41
-4 -83 -11 -92 -15 -21 -10 -157 28 -223 62 -53 27 -69 28 -260 21 -84 -3
-112 1 -180 21 -68 21 -100 25 -210 24 -108 0 -141 -4 -195 -23 -90 -31 -220
-92 -220 -104 0 -19 68 -72 137 -104 81 -39 215 -66 283 -58 42 6 44 5 21 -8
-24 -14 -24 -15 28 -32 29 -9 51 -19 49 -21 -2 -2 -88 13 -192 32 -103 20
-190 33 -193 31 -6 -7 14 -44 49 -89 17 -22 55 -50 94 -69 72 -36 83 -36 339
-26 81 4 127 3 110 -2 -16 -5 -70 -9 -120 -10 -49 -1 -108 -5 -129 -9 l-40 -7
55 -37 c55 -39 151 -78 191 -79 13 0 34 -13 48 -32 15 -18 19 -29 10 -25 -8 3
-59 25 -112 47 -54 23 -99 41 -101 41 -2 0 -2 -15 0 -32 3 -30 1 -29 -23 19
-30 60 -56 75 -164 98 -135 28 -204 75 -264 180 -39 69 -92 122 -151 153 -43
23 -62 26 -142 27 -105 0 -112 7 -64 56 29 29 30 29 155 29 122 0 129 1 258
44 73 25 165 50 203 56 96 15 134 26 250 70 55 21 130 46 166 55 37 9 147 56
245 105 99 49 185 89 193 89 8 1 -11 -19 -42 -43z m-328 0 c-6 -6 -239 -106
-246 -106 -12 0 23 33 51 47 44 23 209 73 195 59z m-299 -84 c0 -15 -98 -104
-103 -95 -7 12 37 78 61 92 21 12 42 14 42 3z m-390 -51 c0 -39 -33 -60 -135
-84 -174 -43 -166 -42 -115 -7 63 44 199 110 227 110 16 0 23 -6 23 -19z
m1210 -131 c-9 -17 -21 -20 -72 -20 -71 0 -70 7 4 25 77 19 81 19 68 -5z
m-3539 -26 c79 -85 278 -108 431 -50 53 20 63 27 60 46 -2 17 2 21 15 16 10
-4 49 -19 88 -34 l70 -27 -55 -6 c-30 -4 -125 -27 -210 -52 -85 -25 -219 -60
-298 -78 l-143 -33 -72 37 c-43 22 -86 37 -107 37 -42 0 -239 -65 -351 -115
-44 -20 -83 -34 -86 -31 -10 10 185 96 312 138 139 46 160 46 235 -6 67 -46
105 -46 225 -2 l90 34 -50 22 c-167 74 -196 82 -241 71 -62 -16 -89 -14 -115
9 l-24 20 28 -10 c62 -22 155 -5 143 26 -9 24 29 16 55 -12z m-673 -150 c12
-4 22 -9 22 -13 0 -9 -219 -45 -227 -37 -12 11 4 17 72 27 37 5 75 14 84 19
19 11 20 11 49 4z m977 -103 c-9 -8 -146 -99 -172 -115 -9 -5 -11 -2 -7 8 13
34 -76 4 -174 -58 -46 -29 -60 -33 -43 -12 24 29 129 85 188 100 35 9 95 32
135 50 80 38 86 40 73 27z m-405 -272 c11 -6 6 -8 -17 -9 -19 0 -44 -10 -62
-26 -35 -29 -39 -25 -14 14 28 44 46 48 93 21z"/>
<path d="M6239 6033 c-119 -62 -170 -154 -140 -254 14 -46 20 -47 51 -15 12
14 37 28 54 32 45 10 69 29 93 71 38 68 57 203 29 203 -8 0 -47 -17 -87 -37z"/>
<path d="M4503 2688 c-119 -172 -133 -227 -158 -595 l-7 -93 115 0 115 0 11
33 c34 109 41 293 15 428 -8 46 -19 88 -23 92 -5 5 -12 -34 -15 -85 -16 -199
-48 -321 -96 -363 l-23 -20 6 20 c31 102 59 231 72 335 9 69 23 167 32 218 8
51 13 95 10 98 -2 2 -27 -28 -54 -68z"/>
</g>
</svg>
